<svg version="1.2" xmlns="http://www.w3.org/2000/svg" viewBox="0 65 477 305" width="477" height="305">
	<title>577065f4e06b550b0c191120_shutterstock_367067165 copy</title>
	<style>
		.s0 { fill: #ffffff;stroke: #000000;stroke-miterlimit:10;stroke-width: 0 } 
	</style>
	<g id="Layer 1">
		<path id="shape1" fill-rule="evenodd" class="s0" d="m10 106l14 68 16-32z"/>
		<path id="shape2" fill-rule="evenodd" class="s0" d="m45 159l-10 12-3 8 27 1z"/>
		<path id="shape3" fill-rule="evenodd" class="s0" d="m26 185l-19 44 38-17 57 13-32-27-10-13z"/>
		<path id="shape4" fill-rule="evenodd" class="s0" d="m5 117l-2 105 18-40z"/>
		<path id="shape5" fill-rule="evenodd" class="s0" d="m4 236l42-16 66 12-25 42 15 60-60-37-36-34z"/>
		<path id="shape6" fill-rule="evenodd" class="s0" d="m116 235l-20 37 59 18-11-31z"/>
		<path id="shape7" fill-rule="evenodd" class="s0" d="m152 265l20 48 36-13-2-50z"/>
		<path id="shape8" fill-rule="evenodd" class="s0" d="m94 277l16 62 48 21-3-63z"/>
		<path id="shape9" fill-rule="evenodd" class="s0" d="m161 300l4 58 9.5-24.7z"/>
		<path id="shape10" fill-rule="evenodd" class="s0" d="m174 353l7-20 20 8z"/>
		<path id="shape11" fill-rule="evenodd" class="s0" d="m209 306l-2 33-29-12-2-10z"/>
		<path id="shape12" fill-rule="evenodd" class="s0" d="m356 185l-60 32 38 19-5 38 60-42 9-39z"/>
		<path id="shape13" fill-rule="evenodd" class="s0" d="m214 248l75-27 35 18-82 27z"/>
		<path id="shape14" fill-rule="evenodd" class="s0" d="m214 260l50 26-47 15z"/>
		<path id="shape15" fill-rule="evenodd" class="s0" d="m253 269l43 27 28-48z"/>
		<path id="shape16" fill-rule="evenodd" class="s0" d="m308 290l15-11 4-23z"/>
		<path id="shape17" fill-rule="evenodd" class="s0" d="m219 310v25l72-32-16-10z"/>
		<path id="shape18" fill-rule="evenodd" class="s0" d="m359 179l29 3-18-56z"/>
		<path id="shape19" fill-rule="evenodd" class="s0" d="m372 75l19 25-18 1z"/>
		<path id="shape20" fill-rule="evenodd" class="s0" d="m373 106l17-1 3 28-2 43-19-55z"/>
		<path id="shape21" fill-rule="evenodd" class="s0" d="m401 130l65 47-32 25z"/>
		<path id="shape22" fill-rule="evenodd" class="s0" d="m405 127l54 39-8-31-27-21z"/>
		<path id="shape23" fill-rule="evenodd" class="s0" d="m397 141l5-1 27 65-29 19 8-40-12-4z"/>
	</g>
</svg>